# Exported from ProBuilder
# http://www.procore3d.com/probuilder
# 09/16/2018 17:48:55

mtllib ./Screens.mtl
o Screens

g Screens
v -0.8013759 1.597143 16.56719
v -1.517652 1.681505 15.87123
v -0.5030344 0.6058856 16.56636
v -1.645984 0.7384592 15.46056
v -0.5030344 0.6058856 16.56636
v 0.5030181 0.609627 16.56717
v -0.8013759 1.597143 16.56719
v 0.794075 1.597898 16.56572
v 1.494348 1.691173 15.85247
v 0.794075 1.597898 16.56572
v 1.621495 0.7500513 15.43633
v 0.5030181 0.609627 16.56717

vn 0.6931303 0.2077579 -0.6902225
vn 0.6943015 0.205832 -0.689622
vn 0.6923921 0.208968 -0.690598
vn 0.6931303 0.2077579 -0.6902225
vn -0.0002487305 -0.0003169554 -0.9999999
vn 0.0008177974 -0.001711496 -0.9999982
vn -0.0009184019 0.0005586758 -0.9999993
vn -0.0002487305 -0.0003169554 -0.9999999
vn -0.7097118 0.2051494 -0.6739606
vn -0.7113754 0.2085209 -0.6711661
vn -0.7086636 0.2030389 -0.6757006
vn -0.7097118 0.2051494 -0.6739606

vt 0.9073454 0.4382438
vt 0.1900718 0.1260667
vt 0.9073454 0.4382438
vt 0.00423342 0.750421
vt 0.9073454 0.4382438
vt 0.09715261 0.4382438
vt 0.9073454 0.4382438
vt 0.09715261 0.4382438
vt 0.8144262 0.1260667
vt 0.09715261 0.4382438
vt 1.000265 0.750421
vt 0.09715261 0.4382438

g Screens
usemtl Mask
f 3/3/3 4/4/4 2/2/2 1/1/1
f 7/7/7 8/8/8 6/6/6 5/5/5
f 11/11/11 12/12/12 10/10/10 9/9/9

