# Exported from ProBuilder
# http://www.procore3d.com/probuilder
# 09/16/2018 18:05:46

mtllib ./ScreenBase.mtl
o ScreenBase

g pb-MergedObject-413848
v -1.512322 1.687946 15.8675
v -1.536901 1.6833 15.89034
v -1.641235 0.7404376 15.45671
v -1.666139 0.7334077 15.47852
v -1.536901 1.6833 15.89034
v -0.808755 1.602188 16.5908
v -1.666139 0.7334077 15.47852
v -0.511123 0.6021831 16.59084
v -0.808755 1.602188 16.5908
v -0.7974869 1.603271 16.5615
v -0.511123 0.6021831 16.59084
v -0.5009797 0.60703 16.56155
v -0.5009797 0.60703 16.56155
v -1.641235 0.7404376 15.45671
v -0.511123 0.6021831 16.59084
v -1.666139 0.7334077 15.47852
v -0.808755 1.602188 16.5908
v -1.536901 1.6833 15.89034
v -0.7974869 1.603271 16.5615
v -1.512322 1.687946 15.8675
v 1.510397 1.691547 15.8694
v 1.487611 1.700549 15.846
v 1.640992 0.745522 15.45573
v 1.618535 0.7521442 15.43129
v 0.79284 1.605746 16.56343
v 0.8076882 1.600577 16.5804
v 0.4988288 0.6074188 16.56507
v 0.5194287 0.6005843 16.5853
v 0.5194287 0.6005843 16.5853
v 1.640992 0.745522 15.45573
v 0.4988288 0.6074188 16.56507
v 1.618535 0.7521442 15.43129
v 0.79284 1.605746 16.56343
v 1.487611 1.700549 15.846
v 0.8076882 1.600577 16.5804
v 1.510397 1.691547 15.8694
v 1.510397 1.691547 15.8694
v 0.8076882 1.600577 16.5804
v 0.5194287 0.6005843 16.5853
v 1.640992 0.745522 15.45573
v 0.4988288 0.6074188 16.56507
v 0.5194287 0.6005843 16.5853
v 0.79284 1.605746 16.56343
v 0.8076882 1.600577 16.5804
v 0.5194287 0.6005843 16.5853
v -0.511123 0.6021831 16.59084
v 0.8076882 1.600577 16.5804
v -0.808755 1.602188 16.5908
v -0.511123 0.6021831 16.59084
v -0.5009797 0.60703 16.56155
v -0.808755 1.602188 16.5908
v -0.7974869 1.603271 16.5615
v -0.7974869 1.603271 16.5615
v 0.79284 1.605746 16.56343
v -0.808755 1.602188 16.5908
v 0.8076882 1.600577 16.5804
v -0.511123 0.6021831 16.59084
v 0.5194287 0.6005843 16.5853
v -0.5009797 0.60703 16.56155
v 0.4988288 0.6074188 16.56507

vn 0.6689838 -0.3703991 0.6444107
vn 0.668979 -0.3704005 0.6444148
vn 0.668979 -0.3704005 0.6444148
vn 0.6689742 -0.3704019 0.6444191
vn -0.6905926 -0.2060457 0.6932727
vn -0.6902747 -0.2054183 0.6937754
vn -0.6907931 -0.2064416 0.6929551
vn -0.6905926 -0.2060457 0.6932727
vn -0.8961942 -0.2667492 -0.354515
vn -0.8961968 -0.2667498 -0.3545078
vn -0.8961968 -0.2667498 -0.3545078
vn -0.8961995 -0.2667503 -0.3545005
vn -0.03205618 0.9878051 0.1523597
vn -0.06443387 0.9808541 0.1837755
vn -0.06443387 0.9808541 0.1837755
vn -0.09124116 0.9735221 0.2095942
vn -0.05517565 -0.9967865 -0.05807015
vn -0.005207035 -0.9936106 -0.1127421
vn -0.005207035 -0.9936106 -0.1127421
vn 0.03810365 -0.9864456 -0.1596032
vn -0.7343735 -0.3544795 0.5788264
vn -0.7343732 -0.3544795 0.5788267
vn -0.7343732 -0.3544795 0.5788267
vn -0.734373 -0.3544795 0.578827
vn 0.7036856 -0.2083533 -0.6792757
vn 0.6764426 -0.1994226 -0.7089823
vn 0.6764426 -0.1994226 -0.7089823
vn 0.6544051 -0.1922247 -0.7313028
vn 0.1009694 0.9692026 0.2246136
vn 0.08635467 0.973849 0.210145
vn 0.08635467 0.973849 0.210145
vn 0.07349776 0.9775698 0.1973709
vn -0.09095763 -0.9720293 -0.2165312
vn -0.1117098 -0.9655871 -0.234867
vn -0.1117098 -0.9655871 -0.234867
vn -0.1257602 -0.9607639 -0.2472185
vn 0.709736 -0.1976876 0.6761615
vn 0.7086276 -0.1995694 0.6767709
vn 0.7079303 -0.2007498 0.6771516
vn 0.7086276 -0.1995694 0.6767709
vn -0.6539154 0.1937812 0.73133
vn -0.6764425 0.1994226 0.7089826
vn -0.6764425 0.1994226 0.7089826
vn -0.7043217 0.2063585 0.6792254
vn 0.006023998 0.002499627 0.9999788
vn 0.005376732 0.001641286 0.9999841
vn 0.006436346 0.003046447 0.9999747
vn 0.006023998 0.002499627 0.9999788
vn 0.8961993 0.2667508 0.3545007
vn 0.896197 0.2667499 0.3545075
vn 0.896197 0.2667499 0.3545075
vn 0.8961945 0.2667489 0.3545142
vn 0.001599048 -0.9993386 -0.03633047
vn -8.684721E-05 -0.9909934 -0.1339103
vn -8.684721E-05 -0.9909934 -0.1339103
vn -0.0028147 -0.9572735 -0.2891706
vn 0.002412113 0.9864456 0.1640713
vn 0.0008079908 0.9733256 0.2294269
vn 0.0008079908 0.9733256 0.2294269
vn -0.001500282 0.9469315 0.3214318

vt -0.001425385 0.1501067
vt -0.01859498 -0.3365822
vt -0.610917 0.353269
vt -0.01859498 0.7067754
vt 0.5 -0.5
vt -0.1488245 -0.01859498
vt 0.7976489 0.5
vt -0.389527 -0.1775883
vt -0.1488245 -0.01859498
vt 0.3421741 -0.0571304
vt -0.389527 -0.1775883
vt 0.2353289 0.1003488
vt 0.2353289 0.1003488
vt -0.610917 0.353269
vt -0.389527 -0.1775883
vt 0.7976489 -0.01859498
vt -0.1488245 -0.01859498
vt -0.5 -0.01859498
vt 0.3421741 -0.0571304
vt -0.001425385 0.1501067
vt 0.1101276 -0.05023289
vt -0.01859498 -0.3365822
vt -0.6127951 0.3501146
vt -0.01859498 0.7067754
vt -0.1951642 0.4823049
vt 0.1931649 0.01398863
vt -0.4591987 -0.1887266
vt 0.5106974 0.2205504
vt 0.5106974 0.2205504
vt -0.6127951 0.3501146
vt -0.4591987 -0.1887266
vt 0.7976489 -0.01859498
vt -0.1951642 0.4823049
vt -0.5 -0.01859498
vt 0.1931649 0.01398863
vt 0.1101276 -0.05023289
vt 0.1101276 -0.05023289
vt 0.1931649 0.01398863
vt 0.5106974 0.2205504
vt -0.6127951 0.3501146
vt -0.4591987 -0.1887266
vt 0.5106974 0.2205504
vt -0.1951642 0.4823049
vt 0.1931649 0.01398863
vt 0.5106974 0.2205504
vt -0.389527 -0.1775883
vt 0.1931649 0.01398863
vt -0.1488245 -0.01859498
vt -0.389527 -0.1775883
vt 0.2353289 0.1003488
vt -0.1488245 -0.01859498
vt 0.3421741 -0.0571304
vt 0.3421741 -0.0571304
vt -0.1951642 0.4823049
vt -0.1488245 -0.01859498
vt 0.1931649 0.01398863
vt -0.389527 -0.1775883
vt 0.5106974 0.2205504
vt 0.2353289 0.1003488
vt -0.4591987 -0.1887266

g pb-MergedObject-413848
usemtl Default_Prototype
f 1/1/1 2/2/2 4/4/4 3/3/3
f 7/7/7 8/8/8 6/6/6 5/5/5
f 9/9/9 10/10/10 12/12/12 11/11/11
f 13/13/13 14/14/14 16/16/16 15/15/15
f 17/17/17 18/18/18 20/20/20 19/19/19
f 21/21/21 22/22/22 24/24/24 23/23/23
f 25/25/25 26/26/26 28/28/28 27/27/27
f 29/29/29 30/30/30 32/32/32 31/31/31
f 33/33/33 34/34/34 36/36/36 35/35/35
f 39/39/39 40/40/40 37/37/37 38/38/38
f 41/41/41 42/42/42 44/44/44 43/43/43
f 47/47/47 48/48/48 46/46/46 45/45/45
f 49/49/49 50/50/50 52/52/52 51/51/51
f 53/53/53 54/54/54 56/56/56 55/55/55
f 57/57/57 58/58/58 60/60/60 59/59/59

